<svg width="446" height="165" viewBox="0 0 446 165" fill="none" xmlns="http://www.w3.org/2000/svg">
<g clip-path="url(#clip0_1_2)">
<mask id="mask0_1_2" style="mask-type:luminance" maskUnits="userSpaceOnUse" x="0" y="0" width="502" height="165">
<path d="M502 0H0V165H502V0Z" fill="white"/>
</mask>
<g mask="url(#mask0_1_2)">
<path fill-rule="evenodd" clip-rule="evenodd" d="M445.9 166.972C408.963 167.012 57.8483 167.006 20.8922 166.972C15.9938 166.972 13.8508 166.677 11.1119 165.388C5.93542 162.95 1.94401 157.653 1.95349 151.643C1.99141 103.408 1.9851 58.0889 1.93453 15.6858C1.92505 9.26514 5.44243 3.85774 10.9508 1.34967C13.0618 0.393261 16.1368 -0.0548475 20.1756 0.00534614C30.2884 0.172551 39.5037 0.189271 47.8216 0.0555075C55.5137 -0.071568 61.8121 0.333067 66.7168 1.26941C85.2612 4.80747 100.389 14.0138 112.102 28.8883C123.598 43.4886 129.16 61.0016 128.788 81.4274C128.781 81.8888 128.56 82.1196 128.124 82.1196H116.965C116.598 82.1196 116.419 81.9256 116.424 81.5377C116.564 75.3913 114.668 70.3083 110.736 66.2887C103.786 59.1758 95.709 60.2392 86.7212 60.3696C84.0034 60.403 81.7217 60.0151 79.8762 59.2058C69.2387 54.5208 70.5849 44.5086 70.6798 34.3358C70.7746 25.1763 66.2901 17.913 58.1746 14.512C55.7664 13.5021 52.4609 13.0206 48.2577 13.0674C37.7719 13.1878 27.264 13.1978 16.734 13.0975C16.4149 13.0948 16.0985 13.159 15.8031 13.2864C15.5076 13.4138 15.2388 13.6018 15.0122 13.8396C14.7858 14.0775 14.606 14.3604 14.4833 14.6721C14.3606 14.9838 14.2974 15.3181 14.2974 15.6557V150.805C14.2974 151.456 14.4967 151.97 14.9341 152.431C15.3715 152.892 16.2777 152.933 16.8962 152.933H445.9V166.972ZM80.0752 19.5884C79.8161 19.0667 79.9393 18.9296 80.445 19.177C93.7307 25.7649 103.654 35.8641 110.215 49.4745C110.638 50.3507 110.426 50.5814 109.579 50.1668C102.09 46.515 93.481 47.1069 85.356 47.2975C85.0306 47.3072 84.7068 47.2466 84.4042 47.1196C84.1017 46.9925 83.8268 46.8017 83.5962 46.5586C83.3655 46.3155 83.184 46.0253 83.0628 45.7056C82.9416 45.3859 82.8831 45.0435 82.891 44.6992C83.0427 36.3222 83.6874 27.0423 80.0752 19.5884Z" fill="url(#paint0_linear_1_2)"/>
</g>
<path d="M26.8864 142V72.1818H39.5341V131.398H70.2841V142H26.8864ZM80.7159 142V89.6364H93.0568V142H80.7159ZM86.9205 82.2045C84.9659 82.2045 83.2841 81.5568 81.875 80.2614C80.4659 78.9432 79.7614 77.3636 79.7614 75.5227C79.7614 73.6591 80.4659 72.0795 81.875 70.7841C83.2841 69.4659 84.9659 68.8068 86.9205 68.8068C88.8977 68.8068 90.5795 69.4659 91.9659 70.7841C93.375 72.0795 94.0795 73.6591 94.0795 75.5227C94.0795 77.3636 93.375 78.9432 91.9659 80.2614C90.5795 81.5568 88.8977 82.2045 86.9205 82.2045ZM147.134 103.477L135.884 104.705C135.565 103.568 135.009 102.5 134.213 101.5C133.44 100.5 132.395 99.6932 131.077 99.0795C129.759 98.4659 128.145 98.1591 126.236 98.1591C123.668 98.1591 121.509 98.7159 119.759 99.8295C118.031 100.943 117.179 102.386 117.202 104.159C117.179 105.682 117.736 106.92 118.872 107.875C120.031 108.83 121.94 109.614 124.599 110.227L133.531 112.136C138.486 113.205 142.168 114.898 144.577 117.216C147.009 119.534 148.236 122.568 148.259 126.318C148.236 129.614 147.27 132.523 145.361 135.045C143.474 137.545 140.849 139.5 137.486 140.909C134.122 142.318 130.259 143.023 125.895 143.023C119.486 143.023 114.327 141.682 110.418 139C106.509 136.295 104.179 132.534 103.429 127.716L115.463 126.557C116.009 128.92 117.168 130.705 118.94 131.909C120.713 133.114 123.02 133.716 125.861 133.716C128.793 133.716 131.145 133.114 132.918 131.909C134.713 130.705 135.611 129.216 135.611 127.443C135.611 125.943 135.031 124.705 133.872 123.727C132.736 122.75 130.963 122 128.554 121.477L119.622 119.602C114.599 118.557 110.884 116.795 108.474 114.318C106.065 111.818 104.872 108.659 104.895 104.841C104.872 101.614 105.747 98.8182 107.52 96.4545C109.315 94.0682 111.804 92.2273 114.986 90.9318C118.19 89.6136 121.884 88.9545 126.065 88.9545C132.202 88.9545 137.031 90.2614 140.554 92.875C144.099 95.4886 146.293 99.0227 147.134 103.477ZM184.582 89.6364V99.1818H154.48V89.6364H184.582ZM161.912 77.0909H174.253V126.25C174.253 127.909 174.503 129.182 175.003 130.068C175.526 130.932 176.207 131.523 177.048 131.841C177.889 132.159 178.821 132.318 179.844 132.318C180.616 132.318 181.321 132.261 181.957 132.148C182.616 132.034 183.116 131.932 183.457 131.841L185.537 141.489C184.878 141.716 183.935 141.966 182.707 142.239C181.503 142.511 180.026 142.67 178.276 142.716C175.185 142.807 172.401 142.341 169.923 141.318C167.446 140.273 165.48 138.659 164.026 136.477C162.594 134.295 161.889 131.568 161.912 128.295V77.0909ZM196.574 142V72.1818H222.756C228.119 72.1818 232.619 73.1818 236.256 75.1818C239.915 77.1818 242.676 79.9318 244.54 83.4318C246.426 86.9091 247.369 90.8636 247.369 95.2955C247.369 99.7727 246.426 103.75 244.54 107.227C242.653 110.705 239.869 113.443 236.188 115.443C232.506 117.42 227.972 118.409 222.585 118.409H205.233V108.011H220.881C224.017 108.011 226.585 107.466 228.585 106.375C230.585 105.284 232.063 103.784 233.017 101.875C233.994 99.9659 234.483 97.7727 234.483 95.2955C234.483 92.8182 233.994 90.6364 233.017 88.75C232.063 86.8636 230.574 85.3977 228.551 84.3523C226.551 83.2841 223.972 82.75 220.812 82.75H209.222V142H196.574ZM291.185 119.977V89.6364H303.526V142H291.56V132.693H291.014C289.832 135.625 287.889 138.023 285.185 139.886C282.503 141.75 279.196 142.682 275.264 142.682C271.832 142.682 268.798 141.92 266.162 140.398C263.548 138.852 261.503 136.614 260.026 133.682C258.548 130.727 257.81 127.159 257.81 122.977V89.6364H270.151V121.068C270.151 124.386 271.06 127.023 272.878 128.977C274.696 130.932 277.082 131.909 280.037 131.909C281.855 131.909 283.616 131.466 285.321 130.58C287.026 129.693 288.423 128.375 289.514 126.625C290.628 124.852 291.185 122.636 291.185 119.977ZM328.557 72.1818V142H316.216V72.1818H328.557ZM382.634 103.477L371.384 104.705C371.065 103.568 370.509 102.5 369.713 101.5C368.94 100.5 367.895 99.6932 366.577 99.0795C365.259 98.4659 363.645 98.1591 361.736 98.1591C359.168 98.1591 357.009 98.7159 355.259 99.8295C353.531 100.943 352.679 102.386 352.702 104.159C352.679 105.682 353.236 106.92 354.372 107.875C355.531 108.83 357.44 109.614 360.099 110.227L369.031 112.136C373.986 113.205 377.668 114.898 380.077 117.216C382.509 119.534 383.736 122.568 383.759 126.318C383.736 129.614 382.77 132.523 380.861 135.045C378.974 137.545 376.349 139.5 372.986 140.909C369.622 142.318 365.759 143.023 361.395 143.023C354.986 143.023 349.827 141.682 345.918 139C342.009 136.295 339.679 132.534 338.929 127.716L350.963 126.557C351.509 128.92 352.668 130.705 354.44 131.909C356.213 133.114 358.52 133.716 361.361 133.716C364.293 133.716 366.645 133.114 368.418 131.909C370.213 130.705 371.111 129.216 371.111 127.443C371.111 125.943 370.531 124.705 369.372 123.727C368.236 122.75 366.463 122 364.054 121.477L355.122 119.602C350.099 118.557 346.384 116.795 343.974 114.318C341.565 111.818 340.372 108.659 340.395 104.841C340.372 101.614 341.247 98.8182 343.02 96.4545C344.815 94.0682 347.304 92.2273 350.486 90.9318C353.69 89.6136 357.384 88.9545 361.565 88.9545C367.702 88.9545 372.531 90.2614 376.054 92.875C379.599 95.4886 381.793 99.0227 382.634 103.477ZM417.116 143.023C411.866 143.023 407.332 141.932 403.514 139.75C399.719 137.545 396.798 134.432 394.753 130.409C392.707 126.364 391.685 121.602 391.685 116.125C391.685 110.739 392.707 106.011 394.753 101.943C396.821 97.8523 399.707 94.6705 403.412 92.3977C407.116 90.1023 411.469 88.9545 416.469 88.9545C419.696 88.9545 422.741 89.4773 425.605 90.5227C428.491 91.5455 431.037 93.1364 433.241 95.2955C435.469 97.4545 437.219 100.205 438.491 103.545C439.764 106.864 440.401 110.818 440.401 115.409V119.193H397.48V110.875H428.571C428.548 108.511 428.037 106.409 427.037 104.568C426.037 102.705 424.639 101.239 422.844 100.17C421.071 99.1023 419.003 98.5682 416.639 98.5682C414.116 98.5682 411.901 99.1818 409.991 100.409C408.082 101.614 406.594 103.205 405.526 105.182C404.48 107.136 403.946 109.284 403.923 111.625V118.886C403.923 121.932 404.48 124.545 405.594 126.727C406.707 128.886 408.264 130.545 410.264 131.705C412.264 132.841 414.605 133.409 417.287 133.409C419.082 133.409 420.707 133.159 422.162 132.659C423.616 132.136 424.878 131.375 425.946 130.375C427.014 129.375 427.821 128.136 428.366 126.659L439.889 127.955C439.162 131 437.776 133.659 435.73 135.932C433.707 138.182 431.116 139.932 427.957 141.182C424.798 142.409 421.185 143.023 417.116 143.023Z" fill="#2A3444"/>
</g>
<defs>
<linearGradient id="paint0_linear_1_2" x1="77.2238" y1="160.955" x2="575.539" y2="158.029" gradientUnits="userSpaceOnUse">
<stop offset="0.0718746" stop-color="#2A3444"/>
<stop offset="0.897971" stop-color="#2ED1B6"/>
</linearGradient>
<clipPath id="clip0_1_2">
<rect width="446" height="165" fill="white"/>
</clipPath>
</defs>
</svg>
