<?xml version="1.0" standalone="no"?>
<!DOCTYPE svg PUBLIC "-//W3C//DTD SVG 20010904//EN"
 "http://www.w3.org/TR/2001/REC-SVG-20010904/DTD/svg10.dtd">
<svg version="1.0" xmlns="http://www.w3.org/2000/svg"
 width="684.000000pt" height="684.000000pt" viewBox="0 0 684.000000 684.000000"
 preserveAspectRatio="xMidYMid meet">
<metadata>
Created by potrace 1.14, written by Peter Selinger 2001-2017
</metadata>
<g transform="translate(0.000000,684.000000) scale(0.100000,-0.100000)"
fill="#000000" stroke="none">
<path d="M1478 6835 c-2 -2 -23 -5 -48 -8 -214 -27 -403 -186 -478 -403 -11
-33 -24 -87 -28 -119 -5 -44 -7 -1342 -3 -2180 0 -11 0 -1322 0 -1345 -1 -23
-1 -233 -1 -250 1 -8 0 -415 -1 -905 -1 -490 2 -910 6 -935 23 -154 129 -319
263 -408 l56 -37 143 -5 c78 -3 158 -2 177 1 19 3 40 2 47 -1 6 -4 22 -5 35
-1 13 3 82 4 153 1 72 -3 141 -2 153 1 13 3 34 3 48 -1 14 -4 37 -3 53 1 15 4
27 3 27 -1 0 -5 12 -5 28 -1 15 4 38 5 52 1 14 -3 35 -4 48 -1 12 3 81 4 152
1 71 -3 145 -2 164 1 19 3 40 2 47 -1 6 -4 22 -5 35 -1 13 3 82 4 153 1 72 -3
141 -2 153 1 13 3 34 3 48 -1 14 -4 37 -3 53 1 15 4 27 3 27 -1 0 -5 12 -5 28
-1 15 4 38 5 52 1 14 -4 37 -3 52 1 14 4 28 5 30 3 2 -2 69 -3 149 -3 79 0
152 0 162 -1 29 0 50 0 103 0 l51 0 0 240 c0 132 -3 240 -6 241 -3 0 -499 1
-1101 2 -1025 2 -1097 3 -1120 20 -13 9 -21 17 -16 17 5 0 4 6 -2 13 -7 8 -10
887 -10 2744 l0 2731 28 33 27 33 749 0 c812 -1 815 -1 954 -57 179 -73 347
-233 421 -404 62 -142 71 -211 74 -543 2 -347 9 -407 59 -530 74 -180 236
-307 446 -347 14 -3 160 -6 325 -7 165 -2 311 -6 325 -9 14 -4 34 -9 45 -11
60 -12 85 -20 135 -39 156 -60 311 -195 392 -342 69 -124 95 -223 103 -383 2
-40 6 -76 10 -80 10 -10 476 -9 482 1 6 9 5 211 -1 327 -5 86 -22 251 -31 300
-2 14 -7 41 -9 60 -10 62 -25 147 -40 215 -1 6 -5 19 -9 30 -3 11 -8 31 -11
45 -3 14 -10 41 -15 60 -5 19 -14 51 -19 70 -5 19 -15 49 -22 65 -6 17 -11 30
-10 30 2 0 -10 33 -55 150 -63 163 -154 348 -233 470 -14 22 -37 58 -51 80
-64 101 -191 266 -291 379 -109 124 -393 386 -418 386 -6 0 -12 4 -14 8 -1 5
-29 27 -61 51 -49 35 -100 68 -267 170 -23 15 -168 86 -235 116 -33 15 -73 33
-90 41 -66 30 -344 118 -437 138 -12 3 -52 12 -88 20 -36 8 -85 17 -110 21
-24 4 -47 8 -50 10 -3 2 -39 6 -80 10 -41 4 -93 9 -115 12 -40 5 -1742 13
-1747 8z m2750 -857 c2 -4 8 -8 13 -8 17 0 200 -126 299 -205 86 -69 276 -254
340 -330 69 -83 130 -164 130 -173 0 -6 4 -12 8 -14 9 -3 92 -125 92 -134 0
-3 15 -29 34 -57 18 -29 52 -91 75 -138 47 -94 43 -104 -30 -70 -53 24 -123
47 -187 62 -146 34 -252 42 -541 41 -219 -1 -247 0 -264 16 -37 33 -43 63 -40
182 5 200 4 312 -2 415 -5 94 -9 124 -20 185 -3 14 -7 39 -10 55 -8 50 -41
159 -64 210 -11 26 -21 52 -21 57 0 10 183 -81 188 -94z"/>
<path d="M1679 3790 c-1 -3 -2 -628 -3 -1389 -1 -1141 1 -1387 12 -1398 8 -7
17 -11 22 -8 4 3 46 5 92 5 45 0 110 0 143 0 33 0 89 0 125 0 108 -1 113 -1
160 0 46 1 220 1 325 0 82 -1 103 -1 155 0 46 1 220 1 325 0 75 -1 94 -1 175
0 36 0 94 0 129 0 35 -1 65 1 67 3 3 3 6 269 5 387 l-1 35 -612 0 -613 0 -2
1160 c-1 638 -2 1171 -3 1185 l0 25 -250 0 c-138 0 -251 -2 -251 -5z"/>
<path d="M4908 3125 c-2 -3 -29 -6 -59 -9 -31 -2 -75 -10 -100 -17 -24 -7 -50
-13 -56 -15 -38 -7 -156 -85 -206 -136 -52 -54 -137 -171 -137 -190 0 -4 -8
-8 -18 -8 -17 0 -18 12 -17 158 0 86 -1 164 -3 172 -3 13 -37 15 -237 15 -128
0 -237 -3 -240 -7 -5 -4 -9 -2169 -5 -2813 l0 -61 240 1 c171 0 243 3 248 12
4 6 7 257 6 557 0 300 3 546 6 546 9 0 40 -35 40 -45 0 -11 70 -103 112 -146
69 -71 182 -134 288 -159 86 -21 279 -17 378 8 123 32 272 113 352 192 35 35
108 128 137 175 27 42 74 137 77 155 1 3 4 10 7 15 23 39 62 209 76 335 8 78
8 313 -2 390 -26 217 -99 410 -209 555 -139 184 -345 296 -571 311 -44 3 -85
7 -92 9 -6 2 -13 2 -15 0z m2 -418 c97 -22 166 -62 234 -138 41 -46 103 -156
109 -196 1 -10 6 -23 9 -29 4 -6 9 -21 12 -35 3 -13 7 -35 10 -49 16 -76 23
-289 12 -341 -3 -13 -8 -45 -11 -71 -7 -61 -48 -184 -82 -245 -15 -26 -54 -75
-87 -108 -97 -97 -195 -132 -340 -122 -102 7 -112 10 -175 41 -109 56 -197
171 -244 321 -32 102 -39 161 -40 310 0 122 6 197 23 254 5 17 6 31 2 31 -3 0
-1 5 6 12 7 7 12 20 12 29 0 38 76 165 131 220 91 91 194 128 334 122 39 -2
77 -5 85 -6z"/>
<path d="M4572 722 l-53 -3 1 -47 c0 -26 0 -93 0 -149 -1 -57 1 -107 4 -112 4
-5 2 -12 -4 -16 -6 -4 -8 -10 -5 -15 3 -4 6 -39 6 -77 l1 -69 32 3 c27 3 70 3
109 2 6 -1 23 0 37 1 21 2 194 2 255 0 11 0 31 0 45 1 14 0 30 1 35 1 38 0
224 -1 240 -2 11 0 31 0 45 1 14 0 30 1 35 1 38 0 224 -1 240 -2 11 0 31 0 45
1 14 0 30 1 35 1 38 0 224 -1 240 -2 52 -1 70 1 77 8 5 5 7 114 6 243 -3 202
-5 233 -18 230 -8 -2 -19 -3 -25 -3 -8 1 -253 1 -315 1 -8 0 -80 0 -160 0 -80
0 -152 0 -160 0 -8 0 -80 0 -160 0 -80 0 -152 0 -160 0 -8 0 -82 0 -163 1 -82
1 -151 -1 -154 -3 -2 -3 -17 -2 -31 1 -15 4 -51 6 -80 4z"/>
</g>
</svg>
